<?xml version="1.0" encoding="UTF-8"?>
<svg xmlns="http://www.w3.org/2000/svg" xmlns:xlink="http://www.w3.org/1999/xlink" width="16px" height="16px" viewBox="0 0 16 16" version="1.1">
<g id="surface1">
<path style=" stroke:none;fill-rule:nonzero;fill:rgb(85.098039%,71.764706%,32.156863%);fill-opacity:1;" d="M 5.761719 1.601562 C 4.875 1.601562 4.160156 2.316406 4.160156 3.199219 L 4.160156 3.519531 L 10.398438 3.519531 C 11.546875 3.519531 12.480469 4.453125 12.480469 5.601562 L 12.480469 8.800781 C 12.480469 9.417969 11.980469 9.921875 11.359375 9.921875 L 7.199219 9.921875 C 6.582031 9.921875 6.078125 9.417969 6.078125 8.800781 L 6.078125 6.71875 L 4.800781 6.71875 C 4.445312 6.71875 4.160156 7.007812 4.160156 7.359375 L 4.160156 10.238281 C 4.160156 11.125 4.875 11.839844 5.761719 11.839844 L 12.800781 11.839844 C 13.683594 11.839844 14.398438 11.125 14.398438 10.238281 L 14.398438 3.199219 C 14.398438 2.316406 13.683594 1.601562 12.800781 1.601562 Z M 3.199219 4.160156 C 2.316406 4.160156 1.601562 4.875 1.601562 5.761719 L 1.601562 12.800781 C 1.601562 13.683594 2.316406 14.398438 3.199219 14.398438 L 10.238281 14.398438 C 11.125 14.398438 11.839844 13.683594 11.839844 12.800781 L 11.839844 12.480469 L 5.601562 12.480469 C 4.453125 12.480469 3.519531 11.546875 3.519531 10.398438 L 3.519531 7.199219 C 3.519531 6.582031 4.019531 6.078125 4.640625 6.078125 L 8.800781 6.078125 C 9.417969 6.078125 9.921875 6.582031 9.921875 7.199219 L 9.921875 9.28125 L 11.199219 9.28125 C 11.554688 9.28125 11.839844 8.992188 11.839844 8.640625 L 11.839844 5.761719 C 11.839844 4.875 11.125 4.160156 10.238281 4.160156 Z M 3.199219 4.160156 "/>
</g>
</svg>
