<?xml version="1.0" standalone="no"?>
<!DOCTYPE svg PUBLIC "-//W3C//DTD SVG 20010904//EN"
 "http://www.w3.org/TR/2001/REC-SVG-20010904/DTD/svg10.dtd">
<svg version="1.0" xmlns="http://www.w3.org/2000/svg"
 width="32.000000pt" height="32.000000pt" viewBox="0 0 32.000000 32.000000"
 preserveAspectRatio="xMidYMid meet">

<g transform="translate(0.000000,32.000000) scale(0.100000,-0.100000)"
fill="#000000" stroke="none">
<path d="M35 268 c1 -13 9 -24 18 -26 14 -3 17 -17 17 -87 0 -73 -2 -83 -19
-88 -12 -3 -19 -12 -17 -23 3 -17 14 -19 101 -22 76 -2 103 1 122 13 34 23 47
61 30 94 -10 21 -10 31 0 51 15 29 9 56 -20 88 -19 20 -29 22 -127 22 -104 0
-107 0 -105 -22z m233 -30 c10 -22 10 -32 1 -50 -17 -33 -28 -38 -91 -38 l-58
0 0 -45 c0 -38 4 -47 23 -55 17 -7 9 -9 -33 -8 -30 0 -47 2 -37 5 15 4 17 18
17 108 0 90 -2 104 -17 108 -10 3 27 4 82 4 98 -2 100 -2 113 -29z m-33 -138
c0 -23 -4 -25 -47 -28 -48 -3 -48 -3 -48 28 0 31 0 31 48 28 43 -3 47 -5 47
-28z"/>
<path d="M120 210 l0 -50 53 0 c59 0 87 19 87 58 0 29 -28 42 -89 42 l-51 0 0
-50z m115 0 c0 -23 -4 -25 -47 -28 -48 -3 -48 -3 -48 28 0 31 0 31 48 28 43
-3 47 -5 47 -28z"/>
</g>
</svg>
